<mxfile host="app.diagrams.net" modified="2024-06-28T13:38:44.920Z" agent="Mozilla/5.0 (Macintosh; Intel Mac OS X 10_15_7) AppleWebKit/537.36 (KHTML, like Gecko) Chrome/126.0.0.0 Safari/537.36" version="24.6.4" etag="C9rGWh-XhoTQL0TXAxly" type="github">
  <diagram name="Page-1" id="F8rWhi-5w57sYpazB2Aw">
    <mxGraphModel>
      <root>
        <mxCell id="0" />
        <mxCell id="1" parent="0" />
      </root>
    </mxGraphModel>
  </diagram>
</mxfile>
